<svg width="356" height="307" viewBox="0 0 356 307" fill="none" xmlns="http://www.w3.org/2000/svg">
<g clip-path="url(#clip0_1671_308)">
<path d="M49.9428 218.828C76.4899 218.828 98.0105 197.318 98.0105 170.782C98.0105 144.247 76.4899 122.736 49.9428 122.736C23.3957 122.736 1.875 144.247 1.875 170.782C1.875 197.318 23.3957 218.828 49.9428 218.828Z" fill="#F0F0F0"/>
<path d="M50.0743 170.781H50.2066L52.5837 307H47.5654L50.0743 170.781Z" fill="#F0F0F0"/>
<path d="M153.144 242.69C172.507 242.69 188.203 227.001 188.203 207.647C188.203 188.293 172.507 172.604 153.144 172.604C133.782 172.604 118.085 188.293 118.085 207.647C118.085 227.001 133.782 242.69 153.144 242.69Z" fill="#F0F0F0"/>
<path d="M153.24 207.646H153.337L155.07 307.001H151.41L153.24 207.646Z" fill="#F0F0F0"/>
<path d="M108.775 164.478C152.834 164.478 188.55 128.778 188.55 84.7391C188.55 40.7004 152.834 5 108.775 5C64.7165 5 29 40.7004 29 84.7391C29 128.778 64.7165 164.478 108.775 164.478Z" fill="#CF1E35"/>
<path opacity="0.1" d="M167.893 26.4805C175.334 43.879 176.343 63.3554 170.741 81.4293C165.138 99.5033 153.288 114.997 137.309 125.142C121.329 135.287 102.262 139.422 83.513 136.808C64.7643 134.194 47.5563 125.002 34.9639 110.874C39.5095 121.504 46.3129 131.019 54.9027 138.759C63.4925 146.5 73.6632 152.281 84.7103 155.703C95.7574 159.125 107.417 160.105 118.88 158.575C130.344 157.046 141.338 153.044 151.1 146.846C160.863 140.648 169.161 132.402 175.419 122.681C181.677 112.959 185.745 101.994 187.342 90.5444C188.94 79.095 188.028 67.4355 184.669 56.3735C181.311 45.3115 175.586 35.1116 167.893 26.4805Z" fill="black"/>
<path d="M108.556 84.7383H108.337L104.392 310.812H112.72L108.556 84.7383Z" fill="#221F23"/>
<path d="M293.478 302.539H289.229L287.208 286.16H293.478L293.478 302.539Z" fill="#FFB6B6"/>
<path d="M294.561 306.655L280.862 306.655V306.482C280.862 305.068 281.424 303.713 282.424 302.713C283.424 301.714 284.78 301.152 286.194 301.152L294.561 301.153L294.561 306.655Z" fill="#221F23"/>
<path d="M313.177 302.539H308.929L306.908 286.16H313.178L313.177 302.539Z" fill="#FFB6B6"/>
<path d="M314.261 306.655L300.562 306.655V306.482C300.563 305.068 301.124 303.713 302.124 302.713C303.124 301.714 304.48 301.152 305.894 301.152L314.261 301.153L314.261 306.655Z" fill="#221F23"/>
<path d="M241.865 302.54H246.113L246.902 286.072L241.864 286.161L241.865 302.54Z" fill="#FFB6B6"/>
<path d="M240.781 301.153L249.148 301.152C250.562 301.152 251.918 301.714 252.918 302.713C253.918 303.713 254.48 305.068 254.48 306.482V306.655L240.781 306.655L240.781 301.153Z" fill="#221F23"/>
<path d="M224.691 302.54H228.939L229.782 286.072L224.69 286.161L224.691 302.54Z" fill="#FFB6B6"/>
<path d="M223.607 301.153L231.974 301.152C233.388 301.152 234.744 301.714 235.744 302.713C236.744 303.713 237.306 305.068 237.306 306.482V306.655L223.608 306.655L223.607 301.153Z" fill="#221F23"/>
<path d="M261.469 233.143C261.31 232.732 261.243 232.291 261.272 231.852C261.302 231.412 261.428 230.985 261.641 230.599C261.854 230.213 262.149 229.879 262.505 229.619C262.861 229.36 263.27 229.181 263.703 229.097L278.208 205.789L283.109 210.142L267.31 231.684C267.404 232.42 267.224 233.165 266.806 233.777C266.387 234.39 265.758 234.827 265.038 235.007C264.318 235.187 263.557 235.096 262.899 234.753C262.241 234.409 261.733 233.837 261.469 233.143Z" fill="#FFB6B6"/>
<path d="M327.762 241.77C327.359 241.592 327 241.328 326.71 240.996C326.42 240.664 326.206 240.273 326.084 239.849C325.961 239.426 325.933 238.981 326.002 238.546C326.07 238.111 326.233 237.696 326.479 237.33L320.247 210.597L326.793 210.211L330.86 236.61C331.447 237.064 331.847 237.718 331.984 238.447C332.121 239.176 331.986 239.93 331.604 240.566C331.222 241.202 330.62 241.676 329.912 241.898C329.204 242.12 328.439 242.074 327.762 241.77Z" fill="#FFB6B6"/>
<path d="M266.075 231.992C266.058 231.5 265.933 231.018 265.71 230.58C265.486 230.141 265.169 229.757 264.781 229.454C264.393 229.151 263.943 228.937 263.463 228.827C262.983 228.716 262.485 228.713 262.004 228.816L255.801 218.584L253.135 224.201L259.434 233.056C259.661 233.853 260.172 234.539 260.871 234.984C261.57 235.43 262.408 235.603 263.227 235.472C264.045 235.341 264.787 234.914 265.312 234.273C265.837 233.632 266.108 232.82 266.075 231.992Z" fill="#FFB6B6"/>
<path d="M214.242 242.695C214.531 242.297 214.73 241.84 214.824 241.357C214.918 240.874 214.904 240.376 214.785 239.898C214.665 239.421 214.442 238.975 214.132 238.593C213.821 238.211 213.431 237.902 212.988 237.687L214.396 225.807L208.837 228.595L208.352 239.449C208.04 240.217 208.021 241.073 208.298 241.854C208.575 242.635 209.129 243.287 209.855 243.687C210.581 244.087 211.429 244.207 212.237 244.024C213.046 243.841 213.759 243.368 214.242 242.695Z" fill="#FFB6B6"/>
<path d="M290.109 230.66L288.307 234.318L286.889 296.474L296.158 297.153L304.857 251.568L306.955 296.474L314.578 296.547L322.824 235.303L290.109 230.66Z" fill="#221F23"/>
<path d="M244.356 230.66L247.365 232.441C247.365 232.441 249.809 233.997 248.987 244.815C248.165 255.634 247.183 298.977 247.183 298.977H241.85L233.214 247.201L230.062 299.538L224.449 299.257C224.449 299.257 212.98 239.672 217.943 233.205L244.356 230.66Z" fill="#221F23"/>
<path d="M289.451 185.897L299.576 182.52L312.01 182.702L320.469 186.077L322.824 235.303C322.824 235.303 304.313 246.387 288.308 234.318L289.451 185.897Z" fill="#E4E4E4"/>
<path d="M289.451 185.464C289.451 185.464 285.456 184.996 283.229 191.624C281.003 198.251 275.114 207.217 275.114 207.217L281.555 213.254L294.438 195.396L289.451 185.464Z" fill="#E4E4E4"/>
<path d="M317.327 187.006L320.469 186.076C320.469 186.076 327.586 187.024 327.87 194.677C328.154 202.331 329.5 214.308 329.5 214.308L322.241 215.754L317.327 187.006Z" fill="#E4E4E4"/>
<path d="M216.127 192.374C216.127 192.374 230.757 187.673 242.561 192.056L241.595 214.815L248.876 232.567C248.876 232.567 225.728 241.542 218.014 234L220.264 216.217L216.127 192.374Z" fill="#CF1E35"/>
<path d="M238.628 194.729L241.694 192.057C241.694 192.057 243.739 192.032 245.499 195.177C247.259 198.322 250.447 208.473 250.447 208.473L260.655 225.756L256.164 228.842L239.975 206.211L238.628 194.729Z" fill="#CF1E35"/>
<path d="M216.67 193.496L216.879 192.07C216.879 192.07 211.179 192.492 210.697 197.982C210.214 203.472 208.451 234.452 208.451 234.452L214.09 235.574L219.699 203.778L216.67 193.496Z" fill="#CF1E35"/>
<path d="M306.603 177.985C311.828 177.985 316.064 173.751 316.064 168.529C316.064 163.306 311.828 159.072 306.603 159.072C301.378 159.072 297.143 163.306 297.143 168.529C297.143 173.751 301.378 177.985 306.603 177.985Z" fill="#FFB6B6"/>
<path d="M236.431 184.149L219.329 187.515C218.977 187.584 218.612 187.51 218.315 187.311C218.017 187.111 217.811 186.802 217.741 186.45L216.289 179.082C216.034 177.785 216.036 176.451 216.297 175.155C216.557 173.86 217.07 172.628 217.807 171.531C219.295 169.314 221.602 167.78 224.222 167.264C226.842 166.748 229.559 167.294 231.777 168.781C233.994 170.268 235.529 172.575 236.045 175.193L237.497 182.561C237.566 182.913 237.492 183.278 237.292 183.575C237.093 183.873 236.783 184.079 236.431 184.149Z" fill="#CF1E35"/>
<path d="M228.451 185.4C232.527 185.4 235.832 182.097 235.832 178.022C235.832 173.948 232.527 170.645 228.451 170.645C224.374 170.645 221.069 173.948 221.069 178.022C221.069 182.097 224.374 185.4 228.451 185.4Z" fill="#FFB6B6"/>
<path d="M238.528 175.471L228.07 177.529L227.667 176.049L227.427 177.656L225.817 177.972L225.018 175.04L224.541 178.223L221.426 178.837L221.397 178.689C220.991 176.618 221.424 174.471 222.6 172.718C223.777 170.966 225.601 169.751 227.672 169.341L229.146 169.051C231.218 168.645 233.367 169.078 235.12 170.254C236.873 171.43 238.088 173.253 238.499 175.323L238.528 175.471Z" fill="#CF1E35"/>
<path d="M229.824 186.879C229.745 186.894 229.665 186.903 229.585 186.904L221.661 187.061L219.169 174.411L227.598 172.752L227.438 173.036C225.201 176.993 228.47 182.051 230.617 184.713C230.775 184.908 230.875 185.144 230.905 185.393C230.935 185.642 230.894 185.894 230.787 186.121C230.697 186.315 230.564 186.484 230.396 186.616C230.229 186.747 230.033 186.838 229.824 186.879Z" fill="#CF1E35"/>
<path d="M297.397 160.003C298.553 159.647 299.803 159.824 300.983 160.088L300.87 160.374C303.69 158.741 307.046 157.837 310.244 158.463C313.442 159.089 316.389 161.444 317.163 164.609C317.445 165.873 317.462 167.182 317.214 168.454C316.876 170.321 316.147 172.097 315.076 173.664C314.005 175.231 312.615 176.554 310.997 177.548C310.591 177.793 309.966 177.968 309.727 177.56C309.455 177.096 310.069 176.624 310.252 176.119C310.452 175.565 310.088 174.951 309.614 174.601C309.141 174.251 308.564 174.069 308.069 173.75C307.575 173.393 307.161 172.937 306.853 172.412C306.545 171.886 306.349 171.303 306.279 170.698C306.146 169.488 306.183 168.266 306.39 167.067C304.488 167.762 302.488 168.146 300.464 168.205C299.747 168.271 299.026 168.157 298.364 167.873C297.515 167.441 297.003 166.562 296.537 165.731C296.343 165.382 296.148 165.034 295.953 164.685C295.532 164.062 295.277 163.342 295.212 162.593C295.212 161.383 296.24 160.359 297.397 160.003Z" fill="#382C28"/>
</g>
<defs>
<clipPath id="clip0_1671_308">
<rect width="356" height="307" fill="white"/>
</clipPath>
</defs>
</svg>
