<svg width="372" height="361" viewBox="0 0 372 361" fill="none" xmlns="http://www.w3.org/2000/svg">
<g clip-path="url(#clip0_1671_271)">
<path d="M251.403 119.983L251.407 120.479H251.903C317.955 120.479 371.5 173.952 371.5 239.937C371.5 305.928 317.949 360.45 251.903 360.45H32.933C27.4365 360.45 22.1652 358.268 18.2787 354.386C14.3923 350.503 12.209 345.237 12.209 339.747V121.934C12.209 55.7833 65.65 1.49912 131.888 1.53517C197.564 1.57123 250.851 54.4975 251.403 119.983Z" fill="#221F23" stroke="#221F23"/>
<path opacity="0.1" d="M251.903 118.944C251.349 53.1835 197.838 0.0361725 131.889 0C95.8286 0 63.5577 16.0006 41.5469 41.2529C62.3864 25.1977 87.9717 16.5085 114.288 16.5487C180.238 16.5849 233.748 69.7323 234.302 135.493C300.63 135.493 354.399 189.209 354.399 255.471C354.439 284.374 343.995 312.312 325.001 334.114C339.63 322.922 351.48 308.512 359.631 292.003C367.782 275.494 372.014 257.33 372 238.922C372 172.66 318.23 118.944 251.903 118.944Z" fill="black"/>
<path d="M139.866 192.541C134.971 176.958 123.841 162.666 108.448 157.398C93.0547 152.13 70.5145 160.155 58.9419 171.677C37.7733 192.753 36.6957 269.992 51.2394 292.873C54.1321 292.72 64.114 292.606 67.0418 292.497L71.1836 278.706V292.361C94.0361 291.655 119.472 310.434 141.632 292.554C143.766 276.354 144.76 208.124 139.866 192.541Z" fill="#CF1E35"/>
<path d="M106.502 241.436C124.735 241.436 139.516 226.67 139.516 208.455C139.516 190.241 124.735 175.475 106.502 175.475C88.2698 175.475 73.4893 190.241 73.4893 208.455C73.4893 226.67 88.2698 241.436 106.502 241.436Z" fill="#FFB7B7"/>
<path d="M129.187 165.508C116.576 157.828 99.7694 157.607 86.9594 164.952C74.1504 172.298 65.8659 186.909 66.1445 201.661C84.5979 202.509 103.739 219.823 123.639 202.768L128.285 191.41L131.023 202.776C137.013 202.776 143.014 202.768 149.026 202.753C149.695 188.013 141.799 173.189 129.187 165.508Z" fill="#CF1E35"/>
<path d="M140.239 185.837C147.028 173.59 159.112 163.351 173.524 161.265C177.317 160.779 181.173 160.963 184.894 161.807C206.115 166.3 219.39 186.254 215.243 206.394C214.42 210.389 213.459 214.522 212.773 219.111C212.534 220.68 211.955 222.185 211.072 223.533C210.189 224.88 209.021 226.042 207.641 226.945C206.261 227.848 204.698 228.473 203.051 228.781C201.403 229.088 199.706 229.072 198.065 228.733L197.986 228.717L194.355 227.985C183.563 225.829 171.214 228.265 159.506 228.132C142.055 227.934 129.791 211.865 135.355 196.261C136.689 192.67 138.322 189.184 140.239 185.837Z" fill="#382C28"/>
<path d="M166.577 242.411C184.809 242.411 199.59 227.645 199.59 209.43C199.59 191.215 184.809 176.449 166.577 176.449C148.344 176.449 133.563 191.215 133.563 209.43C133.563 227.645 148.344 242.411 166.577 242.411Z" fill="#FFB7B7"/>
<path d="M151.853 163.152C165.625 157.821 182.206 160.573 193.513 170.066C204.82 179.559 210.387 195.403 207.501 209.874C189.189 207.448 167.284 221.107 150.717 200.805L148.156 188.805L143.448 199.508C137.553 198.45 131.648 197.382 125.733 196.304C127.685 181.678 138.08 168.484 151.853 163.152Z" fill="#382C28"/>
<path d="M245.725 244.369C244.184 243.151 242.394 242.286 240.482 241.834C238.57 241.382 236.583 241.354 234.659 241.752C232.735 242.151 230.922 242.966 229.347 244.14C227.773 245.314 226.475 246.819 225.546 248.548L132.36 281.255L141.607 300.888L231.82 267.3C234.832 268.667 238.241 268.883 241.401 267.907C244.561 266.931 247.254 264.831 248.968 262.004C250.681 259.178 251.298 255.821 250.7 252.571C250.103 249.321 248.332 246.402 245.725 244.369Z" fill="#FFB6B6"/>
<path d="M146.149 265.935L132.382 271.885L125.025 275.069L120.224 277.14C118.19 277.678 116.287 278.624 114.632 279.921C111.799 282.134 109.816 285.254 109.017 288.756C108.218 292.259 108.652 295.929 110.245 299.149C111.839 302.369 114.495 304.942 117.766 306.434C121.037 307.926 124.722 308.247 128.202 307.341L156.377 304.125C157.178 304.031 157.949 303.766 158.639 303.348C159.328 302.93 159.92 302.368 160.373 301.702C161.304 300.343 170.001 296.248 169.581 294.661L173.303 292.956L178.704 291.265L198.984 281.945L195.917 270.616L198.754 256.709C198.33 255.14 152.316 266.731 150.845 266.038C150.116 265.682 149.319 265.489 148.508 265.471C147.697 265.453 146.892 265.611 146.149 265.935Z" fill="#3F3D56"/>
<path d="M185.607 359.286H56.8993C51.5595 359.286 46.4385 357.167 42.6627 353.395C38.8869 349.623 36.7656 344.507 36.7656 339.172V291.835C36.7656 286.5 38.8869 281.384 42.6627 277.612C46.4385 273.84 51.5595 271.721 56.8993 271.721L73.3642 248.545H130.836L185.607 271.721C188.251 271.721 190.87 272.241 193.312 273.252C195.755 274.263 197.975 275.744 199.844 277.612C201.714 279.48 203.197 281.697 204.209 284.138C205.22 286.578 205.741 289.193 205.741 291.835V339.172C205.741 341.814 205.22 344.429 204.209 346.87C203.197 349.31 201.714 351.527 199.844 353.395C197.975 355.263 195.755 356.744 193.312 357.755C190.87 358.766 188.251 359.286 185.607 359.286Z" fill="white"/>
<path d="M231.686 359.286H116.569C113.925 359.286 111.307 358.766 108.864 357.755C106.422 356.744 104.202 355.263 102.333 353.395C100.463 351.527 98.98 349.31 97.9681 346.87C96.9563 344.429 96.4355 341.814 96.4355 339.172V291.835C96.4355 286.5 98.5568 281.384 102.333 277.612C106.108 273.84 111.229 271.721 116.569 271.721L146.881 248.545H204.353L231.686 271.721C237.026 271.721 242.147 273.84 245.923 277.612C249.698 281.384 251.82 286.5 251.82 291.835V339.172C251.82 344.507 249.698 349.623 245.923 353.395C242.147 357.167 237.026 359.286 231.686 359.286Z" fill="#2F2E41"/>
<path d="M128.246 353.417C127.16 354.962 125.747 356.25 124.109 357.19C122.47 358.13 120.645 358.7 118.762 358.86C116.879 359.019 114.984 358.764 113.211 358.113C111.437 357.461 109.828 356.43 108.497 355.09L28.0857 357.687L17.8043 358.019C7.22876 358.361 1.13712 346.138 7.78404 337.913L14.9259 329.076L40.4703 333.079L49.7068 333.483L109.137 336.085C111.538 334 114.621 332.867 117.803 332.902C120.984 332.936 124.042 334.135 126.398 336.272C128.753 338.408 130.242 341.334 130.583 344.494C130.924 347.654 130.092 350.829 128.246 353.417Z" fill="#FFB6B6"/>
<path d="M57.3153 253.296C57.3153 253.296 41.9875 249.41 34.7223 261.909C28.9061 271.915 9.12086 309.758 5.01369 325.29C-15.0264 373.538 31.5673 354.324 30.2637 358.876L45.8517 333.314C52.6248 329.931 39.5873 334.297 37.8699 331.871L49.819 318.897L63.3651 312.131L68.3355 259.156L57.3153 253.296Z" fill="white"/>
<path d="M113.506 355.433C114.593 356.978 116.005 358.265 117.644 359.206C119.282 360.146 121.107 360.716 122.99 360.875C124.873 361.035 126.768 360.78 128.542 360.128C130.315 359.477 131.924 358.445 133.256 357.105L213.667 359.703L223.948 360.035C234.524 360.377 240.615 348.153 233.968 339.929L226.827 331.092L201.282 335.094L192.046 335.499L132.616 338.101C130.214 336.016 127.131 334.883 123.95 334.917C120.768 334.952 117.71 336.151 115.355 338.287C112.999 340.424 111.51 343.349 111.169 346.509C110.829 349.669 111.66 352.845 113.506 355.433Z" fill="#FFB6B6"/>
<path d="M184.437 255.311C184.437 255.311 199.765 251.426 207.03 263.924C212.846 273.93 232.632 311.774 236.739 327.306C256.779 375.554 210.185 356.34 211.489 360.891L195.901 335.33C189.128 331.946 202.165 336.313 203.883 333.887L191.934 320.913L178.387 314.146L173.417 261.171L184.437 255.311Z" fill="#2F2E41"/>
</g>
<defs>
<clipPath id="clip0_1671_271">
<rect width="372" height="361" fill="white"/>
</clipPath>
</defs>
</svg>
