<svg width="1917" height="386" viewBox="0 0 1917 386" fill="none" xmlns="http://www.w3.org/2000/svg">
<g filter="url(#filter0_d_1674_343)">
<path d="M347 365.999H1.29189C0.859029 366.005 0.426573 365.971 0 365.897L163.504 81.8285C164.502 80.0593 165.95 78.5876 167.701 77.5636C169.451 76.5396 171.442 76 173.468 76C175.495 76 177.485 76.5396 179.235 77.5636C180.986 78.5876 182.434 80.0593 183.432 81.8285L293.164 272.46L298.421 281.582L347 365.999Z" fill="#221F23"/>
</g>
<g filter="url(#filter1_d_1674_343)">
<path d="M456 366H282.648C282.431 366.003 282.214 365.985 282 365.948L363.988 223.914C364.488 223.03 365.214 222.294 366.092 221.782C366.97 221.27 367.968 221 368.984 221C370 221 370.998 221.27 371.876 221.782C372.754 222.294 373.48 223.03 373.98 223.914L429.004 319.23L431.64 323.791L456 366Z" fill="#221F23"/>
</g>
<g filter="url(#filter2_d_1674_343)">
<path d="M565 355H347.812C347.54 355.003 347.268 354.982 347 354.935L449.72 176.658C450.347 175.548 451.257 174.624 452.357 173.981C453.456 173.339 454.707 173 455.98 173C457.253 173 458.503 173.339 459.603 173.981C460.703 174.624 461.613 175.548 462.24 176.658L531.178 296.296L534.48 302.02L565 355Z" fill="#221F23"/>
</g>
<g filter="url(#filter3_d_1674_343)">
<path d="M619 366H510.406C510.27 366.002 510.134 365.991 510 365.968L561.36 276.829C561.674 276.274 562.128 275.812 562.678 275.491C563.228 275.169 563.853 275 564.49 275C565.127 275 565.752 275.169 566.302 275.491C566.851 275.812 567.306 276.274 567.62 276.829L602.089 336.648L603.74 339.51L619 366Z" fill="#221F23"/>
</g>
<g filter="url(#filter4_d_1674_343)">
<path d="M780 366H575.763C575.507 366.003 575.252 365.983 575 365.939L671.595 198.437C672.184 197.394 673.04 196.526 674.074 195.922C675.108 195.318 676.284 195 677.481 195C678.678 195 679.854 195.318 680.888 195.922C681.923 196.526 682.778 197.394 683.368 198.437L748.195 310.844L751.3 316.223L780 366Z" fill="#221F23"/>
</g>
<g filter="url(#filter5_d_1674_343)">
<path d="M742 366H528.797C528.53 366.003 528.263 365.982 528 365.936L628.835 190.598C629.451 189.506 630.344 188.597 631.423 187.965C632.503 187.333 633.73 187 634.98 187C636.23 187 637.457 187.333 638.537 187.965C639.617 188.597 640.51 189.506 641.125 190.598L708.798 308.263L712.04 313.894L742 366Z" fill="#221F23"/>
</g>
<g filter="url(#filter6_d_1674_343)">
<path d="M898 364H636.975C636.649 364.004 636.322 363.978 636 363.922L759.453 149.402C760.206 148.065 761.3 146.954 762.621 146.181C763.943 145.407 765.446 145 766.976 145C768.506 145 770.009 145.407 771.33 146.181C772.652 146.954 773.746 148.065 774.499 149.402L857.351 293.361L861.321 300.25L898 364Z" fill="#221F23"/>
</g>
<g filter="url(#filter7_d_1674_343)">
<path d="M1904 354.999H1495.53C1495.01 355.006 1494.5 354.964 1494 354.874L1687.19 7.13485C1688.37 4.96918 1690.08 3.16755 1692.15 1.91403C1694.22 0.660501 1696.57 0 1698.96 0C1701.36 0 1703.71 0.660501 1705.78 1.91403C1707.85 3.16755 1709.56 4.96918 1710.74 7.13485L1840.39 240.495L1846.6 251.661L1904 354.999Z" fill="#221F23"/>
</g>
<g filter="url(#filter8_d_1674_343)">
<path d="M933 355H790.532C790.354 355.002 790.176 354.988 790 354.957L857.381 237.412C857.792 236.68 858.389 236.071 859.11 235.647C859.832 235.223 860.652 235 861.487 235C862.322 235 863.142 235.223 863.864 235.647C864.585 236.071 865.182 236.68 865.593 237.412L910.814 316.294L912.98 320.068L933 355Z" fill="#221F23"/>
</g>
<g filter="url(#filter9_d_1674_343)">
<path d="M1707 354.999H1356.31C1355.87 355.005 1355.43 354.97 1355 354.895L1520.86 65.929C1521.87 64.1293 1523.34 62.6322 1525.12 61.5905C1526.89 60.5489 1528.91 60 1530.97 60C1533.02 60 1535.04 60.5489 1536.82 61.5905C1538.59 62.6322 1540.06 64.1293 1541.08 65.929L1652.39 259.848L1657.72 269.127L1707 354.999Z" fill="#221F23"/>
</g>
<g filter="url(#filter10_d_1674_343)">
<path d="M1463 357H1314.55C1314.37 357.002 1314.18 356.987 1314 356.955L1384.21 234.512C1384.64 233.75 1385.26 233.115 1386.01 232.674C1386.76 232.233 1387.62 232 1388.49 232C1389.36 232 1390.21 232.233 1390.96 232.674C1391.71 233.115 1392.34 233.75 1392.76 234.512L1439.88 316.681L1442.14 320.613L1463 357Z" fill="#221F23"/>
</g>
<g filter="url(#filter11_d_1674_343)">
<path d="M1402 357H1183.82C1183.54 357.003 1183.27 356.981 1183 356.934L1286.19 176.698C1286.82 175.576 1287.74 174.642 1288.84 173.992C1289.94 173.342 1291.2 173 1292.48 173C1293.76 173 1295.01 173.342 1296.12 173.992C1297.22 174.642 1298.14 175.576 1298.77 176.698L1368.02 297.651L1371.34 303.438L1402 357Z" fill="#221F23"/>
</g>
<g filter="url(#filter12_d_1674_343)">
<path d="M1339 356H1156.68C1156.45 356.003 1156.22 355.984 1156 355.945L1242.23 205.095C1242.75 204.156 1243.52 203.374 1244.44 202.83C1245.36 202.287 1246.41 202 1247.48 202C1248.55 202 1249.6 202.287 1250.52 202.83C1251.45 203.374 1252.21 204.156 1252.74 205.095L1310.61 306.327L1313.38 311.171L1339 356Z" fill="#221F23"/>
</g>
<g filter="url(#filter13_d_1674_343)">
<path d="M1242 363H1124.44C1124.29 363.002 1124.15 362.99 1124 362.965L1179.6 265.99C1179.94 265.386 1180.43 264.883 1181.03 264.534C1181.62 264.184 1182.3 264 1182.99 264C1183.68 264 1184.36 264.184 1184.95 264.534C1185.55 264.883 1186.04 265.386 1186.38 265.99L1223.69 331.067L1225.48 334.181L1242 363Z" fill="#221F23"/>
</g>
<g filter="url(#filter14_d_1674_343)">
<path d="M1183 364H1101.31C1101.2 364.001 1101.1 363.993 1101 363.975L1139.64 296.387C1139.87 295.966 1140.22 295.616 1140.63 295.372C1141.04 295.128 1141.51 295 1141.99 295C1142.47 295 1142.94 295.128 1143.36 295.372C1143.77 295.616 1144.11 295.966 1144.35 296.387L1170.28 341.744L1171.52 343.914L1183 364Z" fill="#221F23"/>
</g>
<g filter="url(#filter15_d_1674_343)">
<path d="M1031 357H974.212C974.141 357.001 974.07 356.995 974 356.983L1000.86 309.965C1001.02 309.672 1001.26 309.428 1001.55 309.259C1001.83 309.089 1002.16 309 1002.49 309C1002.83 309 1003.15 309.089 1003.44 309.259C1003.73 309.428 1003.97 309.672 1004.13 309.965L1022.16 341.518L1023.02 343.027L1031 357Z" fill="#221F23"/>
</g>
<g filter="url(#filter16_d_1674_343)">
<path d="M1067 357H1017.19C1017.12 357.001 1017.06 356.996 1017 356.985L1040.56 315.844C1040.7 315.588 1040.91 315.375 1041.16 315.226C1041.42 315.078 1041.7 315 1042 315C1042.29 315 1042.57 315.078 1042.83 315.226C1043.08 315.375 1043.29 315.588 1043.43 315.844L1059.24 343.453L1060 344.774L1067 357Z" fill="#221F23"/>
</g>
<g filter="url(#filter17_d_1674_343)">
<path d="M1132 357H1051.3C1051.2 357.001 1051.1 356.993 1051 356.976L1089.17 290.367C1089.4 289.952 1089.74 289.607 1090.15 289.367C1090.55 289.127 1091.02 289 1091.49 289C1091.97 289 1092.43 289.127 1092.84 289.367C1093.25 289.607 1093.59 289.952 1093.82 290.367L1119.43 335.067L1120.66 337.205L1132 357Z" fill="#221F23"/>
</g>
<g filter="url(#filter18_d_1674_343)">
<path d="M990 356H913.287C913.191 356.001 913.095 355.993 913 355.977L949.282 292.306C949.503 291.91 949.825 291.58 950.213 291.35C950.602 291.121 951.043 291 951.493 291C951.943 291 952.384 291.121 952.773 291.35C953.161 291.58 953.483 291.91 953.704 292.306L978.054 335.034L979.22 337.079L990 356Z" fill="#221F23"/>
</g>
<defs>
<filter id="filter0_d_1674_343" x="0" y="76" width="370" height="310" filterUnits="userSpaceOnUse" color-interpolation-filters="sRGB">
<feFlood flood-opacity="0" result="BackgroundImageFix"/>
<feColorMatrix in="SourceAlpha" type="matrix" values="0 0 0 0 0 0 0 0 0 0 0 0 0 0 0 0 0 0 127 0" result="hardAlpha"/>
<feOffset dx="19" dy="16"/>
<feGaussianBlur stdDeviation="2"/>
<feComposite in2="hardAlpha" operator="out"/>
<feColorMatrix type="matrix" values="0 0 0 0 0 0 0 0 0 0 0 0 0 0 0 0 0 0 0.25 0"/>
<feBlend mode="normal" in2="BackgroundImageFix" result="effect1_dropShadow_1674_343"/>
<feBlend mode="normal" in="SourceGraphic" in2="effect1_dropShadow_1674_343" result="shape"/>
</filter>
<filter id="filter1_d_1674_343" x="282" y="221" width="197" height="165" filterUnits="userSpaceOnUse" color-interpolation-filters="sRGB">
<feFlood flood-opacity="0" result="BackgroundImageFix"/>
<feColorMatrix in="SourceAlpha" type="matrix" values="0 0 0 0 0 0 0 0 0 0 0 0 0 0 0 0 0 0 127 0" result="hardAlpha"/>
<feOffset dx="19" dy="16"/>
<feGaussianBlur stdDeviation="2"/>
<feComposite in2="hardAlpha" operator="out"/>
<feColorMatrix type="matrix" values="0 0 0 0 0 0 0 0 0 0 0 0 0 0 0 0 0 0 0.25 0"/>
<feBlend mode="normal" in2="BackgroundImageFix" result="effect1_dropShadow_1674_343"/>
<feBlend mode="normal" in="SourceGraphic" in2="effect1_dropShadow_1674_343" result="shape"/>
</filter>
<filter id="filter2_d_1674_343" x="347" y="173" width="241" height="202" filterUnits="userSpaceOnUse" color-interpolation-filters="sRGB">
<feFlood flood-opacity="0" result="BackgroundImageFix"/>
<feColorMatrix in="SourceAlpha" type="matrix" values="0 0 0 0 0 0 0 0 0 0 0 0 0 0 0 0 0 0 127 0" result="hardAlpha"/>
<feOffset dx="19" dy="16"/>
<feGaussianBlur stdDeviation="2"/>
<feComposite in2="hardAlpha" operator="out"/>
<feColorMatrix type="matrix" values="0 0 0 0 0 0 0 0 0 0 0 0 0 0 0 0 0 0 0.25 0"/>
<feBlend mode="normal" in2="BackgroundImageFix" result="effect1_dropShadow_1674_343"/>
<feBlend mode="normal" in="SourceGraphic" in2="effect1_dropShadow_1674_343" result="shape"/>
</filter>
<filter id="filter3_d_1674_343" x="510" y="275" width="132" height="111" filterUnits="userSpaceOnUse" color-interpolation-filters="sRGB">
<feFlood flood-opacity="0" result="BackgroundImageFix"/>
<feColorMatrix in="SourceAlpha" type="matrix" values="0 0 0 0 0 0 0 0 0 0 0 0 0 0 0 0 0 0 127 0" result="hardAlpha"/>
<feOffset dx="19" dy="16"/>
<feGaussianBlur stdDeviation="2"/>
<feComposite in2="hardAlpha" operator="out"/>
<feColorMatrix type="matrix" values="0 0 0 0 0 0 0 0 0 0 0 0 0 0 0 0 0 0 0.25 0"/>
<feBlend mode="normal" in2="BackgroundImageFix" result="effect1_dropShadow_1674_343"/>
<feBlend mode="normal" in="SourceGraphic" in2="effect1_dropShadow_1674_343" result="shape"/>
</filter>
<filter id="filter4_d_1674_343" x="575" y="195" width="228" height="191" filterUnits="userSpaceOnUse" color-interpolation-filters="sRGB">
<feFlood flood-opacity="0" result="BackgroundImageFix"/>
<feColorMatrix in="SourceAlpha" type="matrix" values="0 0 0 0 0 0 0 0 0 0 0 0 0 0 0 0 0 0 127 0" result="hardAlpha"/>
<feOffset dx="19" dy="16"/>
<feGaussianBlur stdDeviation="2"/>
<feComposite in2="hardAlpha" operator="out"/>
<feColorMatrix type="matrix" values="0 0 0 0 0 0 0 0 0 0 0 0 0 0 0 0 0 0 0.25 0"/>
<feBlend mode="normal" in2="BackgroundImageFix" result="effect1_dropShadow_1674_343"/>
<feBlend mode="normal" in="SourceGraphic" in2="effect1_dropShadow_1674_343" result="shape"/>
</filter>
<filter id="filter5_d_1674_343" x="528" y="187" width="237" height="199" filterUnits="userSpaceOnUse" color-interpolation-filters="sRGB">
<feFlood flood-opacity="0" result="BackgroundImageFix"/>
<feColorMatrix in="SourceAlpha" type="matrix" values="0 0 0 0 0 0 0 0 0 0 0 0 0 0 0 0 0 0 127 0" result="hardAlpha"/>
<feOffset dx="19" dy="16"/>
<feGaussianBlur stdDeviation="2"/>
<feComposite in2="hardAlpha" operator="out"/>
<feColorMatrix type="matrix" values="0 0 0 0 0 0 0 0 0 0 0 0 0 0 0 0 0 0 0.25 0"/>
<feBlend mode="normal" in2="BackgroundImageFix" result="effect1_dropShadow_1674_343"/>
<feBlend mode="normal" in="SourceGraphic" in2="effect1_dropShadow_1674_343" result="shape"/>
</filter>
<filter id="filter6_d_1674_343" x="636" y="145" width="285" height="239" filterUnits="userSpaceOnUse" color-interpolation-filters="sRGB">
<feFlood flood-opacity="0" result="BackgroundImageFix"/>
<feColorMatrix in="SourceAlpha" type="matrix" values="0 0 0 0 0 0 0 0 0 0 0 0 0 0 0 0 0 0 127 0" result="hardAlpha"/>
<feOffset dx="19" dy="16"/>
<feGaussianBlur stdDeviation="2"/>
<feComposite in2="hardAlpha" operator="out"/>
<feColorMatrix type="matrix" values="0 0 0 0 0 0 0 0 0 0 0 0 0 0 0 0 0 0 0.25 0"/>
<feBlend mode="normal" in2="BackgroundImageFix" result="effect1_dropShadow_1674_343"/>
<feBlend mode="normal" in="SourceGraphic" in2="effect1_dropShadow_1674_343" result="shape"/>
</filter>
<filter id="filter7_d_1674_343" x="1494" y="0" width="433" height="375" filterUnits="userSpaceOnUse" color-interpolation-filters="sRGB">
<feFlood flood-opacity="0" result="BackgroundImageFix"/>
<feColorMatrix in="SourceAlpha" type="matrix" values="0 0 0 0 0 0 0 0 0 0 0 0 0 0 0 0 0 0 127 0" result="hardAlpha"/>
<feOffset dx="19" dy="16"/>
<feGaussianBlur stdDeviation="2"/>
<feComposite in2="hardAlpha" operator="out"/>
<feColorMatrix type="matrix" values="0 0 0 0 0 0 0 0 0 0 0 0 0 0 0 0 0 0 0.25 0"/>
<feBlend mode="normal" in2="BackgroundImageFix" result="effect1_dropShadow_1674_343"/>
<feBlend mode="normal" in="SourceGraphic" in2="effect1_dropShadow_1674_343" result="shape"/>
</filter>
<filter id="filter8_d_1674_343" x="790" y="235" width="166" height="140" filterUnits="userSpaceOnUse" color-interpolation-filters="sRGB">
<feFlood flood-opacity="0" result="BackgroundImageFix"/>
<feColorMatrix in="SourceAlpha" type="matrix" values="0 0 0 0 0 0 0 0 0 0 0 0 0 0 0 0 0 0 127 0" result="hardAlpha"/>
<feOffset dx="19" dy="16"/>
<feGaussianBlur stdDeviation="2"/>
<feComposite in2="hardAlpha" operator="out"/>
<feColorMatrix type="matrix" values="0 0 0 0 0 0 0 0 0 0 0 0 0 0 0 0 0 0 0.25 0"/>
<feBlend mode="normal" in2="BackgroundImageFix" result="effect1_dropShadow_1674_343"/>
<feBlend mode="normal" in="SourceGraphic" in2="effect1_dropShadow_1674_343" result="shape"/>
</filter>
<filter id="filter9_d_1674_343" x="1355" y="60" width="375" height="315" filterUnits="userSpaceOnUse" color-interpolation-filters="sRGB">
<feFlood flood-opacity="0" result="BackgroundImageFix"/>
<feColorMatrix in="SourceAlpha" type="matrix" values="0 0 0 0 0 0 0 0 0 0 0 0 0 0 0 0 0 0 127 0" result="hardAlpha"/>
<feOffset dx="19" dy="16"/>
<feGaussianBlur stdDeviation="2"/>
<feComposite in2="hardAlpha" operator="out"/>
<feColorMatrix type="matrix" values="0 0 0 0 0 0 0 0 0 0 0 0 0 0 0 0 0 0 0.25 0"/>
<feBlend mode="normal" in2="BackgroundImageFix" result="effect1_dropShadow_1674_343"/>
<feBlend mode="normal" in="SourceGraphic" in2="effect1_dropShadow_1674_343" result="shape"/>
</filter>
<filter id="filter10_d_1674_343" x="1314" y="232" width="172" height="145" filterUnits="userSpaceOnUse" color-interpolation-filters="sRGB">
<feFlood flood-opacity="0" result="BackgroundImageFix"/>
<feColorMatrix in="SourceAlpha" type="matrix" values="0 0 0 0 0 0 0 0 0 0 0 0 0 0 0 0 0 0 127 0" result="hardAlpha"/>
<feOffset dx="19" dy="16"/>
<feGaussianBlur stdDeviation="2"/>
<feComposite in2="hardAlpha" operator="out"/>
<feColorMatrix type="matrix" values="0 0 0 0 0 0 0 0 0 0 0 0 0 0 0 0 0 0 0.25 0"/>
<feBlend mode="normal" in2="BackgroundImageFix" result="effect1_dropShadow_1674_343"/>
<feBlend mode="normal" in="SourceGraphic" in2="effect1_dropShadow_1674_343" result="shape"/>
</filter>
<filter id="filter11_d_1674_343" x="1183" y="173" width="242" height="204" filterUnits="userSpaceOnUse" color-interpolation-filters="sRGB">
<feFlood flood-opacity="0" result="BackgroundImageFix"/>
<feColorMatrix in="SourceAlpha" type="matrix" values="0 0 0 0 0 0 0 0 0 0 0 0 0 0 0 0 0 0 127 0" result="hardAlpha"/>
<feOffset dx="19" dy="16"/>
<feGaussianBlur stdDeviation="2"/>
<feComposite in2="hardAlpha" operator="out"/>
<feColorMatrix type="matrix" values="0 0 0 0 0 0 0 0 0 0 0 0 0 0 0 0 0 0 0.25 0"/>
<feBlend mode="normal" in2="BackgroundImageFix" result="effect1_dropShadow_1674_343"/>
<feBlend mode="normal" in="SourceGraphic" in2="effect1_dropShadow_1674_343" result="shape"/>
</filter>
<filter id="filter12_d_1674_343" x="1156" y="202" width="206" height="174" filterUnits="userSpaceOnUse" color-interpolation-filters="sRGB">
<feFlood flood-opacity="0" result="BackgroundImageFix"/>
<feColorMatrix in="SourceAlpha" type="matrix" values="0 0 0 0 0 0 0 0 0 0 0 0 0 0 0 0 0 0 127 0" result="hardAlpha"/>
<feOffset dx="19" dy="16"/>
<feGaussianBlur stdDeviation="2"/>
<feComposite in2="hardAlpha" operator="out"/>
<feColorMatrix type="matrix" values="0 0 0 0 0 0 0 0 0 0 0 0 0 0 0 0 0 0 0.25 0"/>
<feBlend mode="normal" in2="BackgroundImageFix" result="effect1_dropShadow_1674_343"/>
<feBlend mode="normal" in="SourceGraphic" in2="effect1_dropShadow_1674_343" result="shape"/>
</filter>
<filter id="filter13_d_1674_343" x="1124" y="264" width="141" height="119" filterUnits="userSpaceOnUse" color-interpolation-filters="sRGB">
<feFlood flood-opacity="0" result="BackgroundImageFix"/>
<feColorMatrix in="SourceAlpha" type="matrix" values="0 0 0 0 0 0 0 0 0 0 0 0 0 0 0 0 0 0 127 0" result="hardAlpha"/>
<feOffset dx="19" dy="16"/>
<feGaussianBlur stdDeviation="2"/>
<feComposite in2="hardAlpha" operator="out"/>
<feColorMatrix type="matrix" values="0 0 0 0 0 0 0 0 0 0 0 0 0 0 0 0 0 0 0.25 0"/>
<feBlend mode="normal" in2="BackgroundImageFix" result="effect1_dropShadow_1674_343"/>
<feBlend mode="normal" in="SourceGraphic" in2="effect1_dropShadow_1674_343" result="shape"/>
</filter>
<filter id="filter14_d_1674_343" x="1101" y="295" width="105" height="89" filterUnits="userSpaceOnUse" color-interpolation-filters="sRGB">
<feFlood flood-opacity="0" result="BackgroundImageFix"/>
<feColorMatrix in="SourceAlpha" type="matrix" values="0 0 0 0 0 0 0 0 0 0 0 0 0 0 0 0 0 0 127 0" result="hardAlpha"/>
<feOffset dx="19" dy="16"/>
<feGaussianBlur stdDeviation="2"/>
<feComposite in2="hardAlpha" operator="out"/>
<feColorMatrix type="matrix" values="0 0 0 0 0 0 0 0 0 0 0 0 0 0 0 0 0 0 0.25 0"/>
<feBlend mode="normal" in2="BackgroundImageFix" result="effect1_dropShadow_1674_343"/>
<feBlend mode="normal" in="SourceGraphic" in2="effect1_dropShadow_1674_343" result="shape"/>
</filter>
<filter id="filter15_d_1674_343" x="974" y="309" width="80" height="68" filterUnits="userSpaceOnUse" color-interpolation-filters="sRGB">
<feFlood flood-opacity="0" result="BackgroundImageFix"/>
<feColorMatrix in="SourceAlpha" type="matrix" values="0 0 0 0 0 0 0 0 0 0 0 0 0 0 0 0 0 0 127 0" result="hardAlpha"/>
<feOffset dx="19" dy="16"/>
<feGaussianBlur stdDeviation="2"/>
<feComposite in2="hardAlpha" operator="out"/>
<feColorMatrix type="matrix" values="0 0 0 0 0 0 0 0 0 0 0 0 0 0 0 0 0 0 0.25 0"/>
<feBlend mode="normal" in2="BackgroundImageFix" result="effect1_dropShadow_1674_343"/>
<feBlend mode="normal" in="SourceGraphic" in2="effect1_dropShadow_1674_343" result="shape"/>
</filter>
<filter id="filter16_d_1674_343" x="1017" y="315" width="73" height="62" filterUnits="userSpaceOnUse" color-interpolation-filters="sRGB">
<feFlood flood-opacity="0" result="BackgroundImageFix"/>
<feColorMatrix in="SourceAlpha" type="matrix" values="0 0 0 0 0 0 0 0 0 0 0 0 0 0 0 0 0 0 127 0" result="hardAlpha"/>
<feOffset dx="19" dy="16"/>
<feGaussianBlur stdDeviation="2"/>
<feComposite in2="hardAlpha" operator="out"/>
<feColorMatrix type="matrix" values="0 0 0 0 0 0 0 0 0 0 0 0 0 0 0 0 0 0 0.25 0"/>
<feBlend mode="normal" in2="BackgroundImageFix" result="effect1_dropShadow_1674_343"/>
<feBlend mode="normal" in="SourceGraphic" in2="effect1_dropShadow_1674_343" result="shape"/>
</filter>
<filter id="filter17_d_1674_343" x="1051" y="289" width="104" height="88" filterUnits="userSpaceOnUse" color-interpolation-filters="sRGB">
<feFlood flood-opacity="0" result="BackgroundImageFix"/>
<feColorMatrix in="SourceAlpha" type="matrix" values="0 0 0 0 0 0 0 0 0 0 0 0 0 0 0 0 0 0 127 0" result="hardAlpha"/>
<feOffset dx="19" dy="16"/>
<feGaussianBlur stdDeviation="2"/>
<feComposite in2="hardAlpha" operator="out"/>
<feColorMatrix type="matrix" values="0 0 0 0 0 0 0 0 0 0 0 0 0 0 0 0 0 0 0.25 0"/>
<feBlend mode="normal" in2="BackgroundImageFix" result="effect1_dropShadow_1674_343"/>
<feBlend mode="normal" in="SourceGraphic" in2="effect1_dropShadow_1674_343" result="shape"/>
</filter>
<filter id="filter18_d_1674_343" x="913" y="291" width="100" height="85" filterUnits="userSpaceOnUse" color-interpolation-filters="sRGB">
<feFlood flood-opacity="0" result="BackgroundImageFix"/>
<feColorMatrix in="SourceAlpha" type="matrix" values="0 0 0 0 0 0 0 0 0 0 0 0 0 0 0 0 0 0 127 0" result="hardAlpha"/>
<feOffset dx="19" dy="16"/>
<feGaussianBlur stdDeviation="2"/>
<feComposite in2="hardAlpha" operator="out"/>
<feColorMatrix type="matrix" values="0 0 0 0 0 0 0 0 0 0 0 0 0 0 0 0 0 0 0.25 0"/>
<feBlend mode="normal" in2="BackgroundImageFix" result="effect1_dropShadow_1674_343"/>
<feBlend mode="normal" in="SourceGraphic" in2="effect1_dropShadow_1674_343" result="shape"/>
</filter>
</defs>
</svg>
